<svg xmlns="http://www.w3.org/2000/svg" version="1.1" xmlns:xlink="http://www.w3.org/1999/xlink" viewBox="0 0 16.338463256506785 3.9910145260380334"><g transform="matrix(0.7020084216923499,0,0,0.7020084216923499,3.029006585295419,1.611157652142455)"><g transform="matrix(1,0,0,1,0,0)" clip-path="url(#SvgjsClipPath23180)"><g clip-path="url(#SvgjsClipPath23178290c9c44-3ede-47f5-ba5b-648ecced5eff)"><path d=" M 13.454410545582729 0.363418401033171 C 13.501389376843914 0.21821684479076886 13.484569578641729 0.059902291199631086 13.408130562603162 -0.07218699431943776 C 13.336555803396578 -0.19622635344611028 13.218635281694766 -0.28674986471718344 13.080313338753692 -0.3238409535262145 C 12.941991395812607 -0.3609320423352472 12.794600185154305 -0.3415519868153599 12.670568056079343 -0.2699646993603494 C 12.608732875461499 -0.23423744832400284 12.587533035039183 -0.1551695675004715 12.62320029572204 -0.09329976433255482 L 12.828542997980772 0.26230454933100533 C 12.864252274473134 0.3241631541384854 12.943341974716795 0.34536884482793884 13.005207933008577 0.30967230968830295 C 13.067048592408057 0.27394609012368154 13.08823107705155 0.19486038726975663 13.052526248939616 0.13300737466050838 L 12.927580183780014 -0.08336143465424983 C 13.032614114674843 -0.08819021534116678 13.13157494260193 -0.0340468754905181 13.18414731164435 0.0570112914985369 C 13.223476525674554 0.12506805780618124 13.232445281445127 0.2065043602029777 13.208869524774453 0.2814889867199716 C 13.149536213262177 0.44638614829783274 13.403383897682192 0.5282166737585113 13.454262212303963 0.3632700677543891 Z M 14.537243480681733 -0.407172982232483 C 14.746184008728276 -0.045199784599253445 14.64074198409303 0.41664533782167734 14.29541079184295 0.652074961540381 C 14.355577929874404 0.6860563318504543 14.405510203432318 0.7355787645857293 14.439986294227854 0.7954637976950437 L 14.592423460388146 1.0594970339246608 C 14.699351295282844 1.2448560551200125 14.635855402003235 1.481798206898162 14.450567401447564 1.58884906146666 C 14.088613077531027 1.7978093812135354 13.62676593641165 1.6923619735384854 13.391368902100947 1.3470163726278876 C 13.357387531790877 1.4071835106593418 13.3078650990556 1.4571157842172533 13.24798006594628 1.4915918750127948 L 12.983897385290412 1.6440290411730762 C 12.798538364095057 1.7509568760677712 12.561596212316903 1.68746098278816 12.454545357748414 1.502172982232484 C 12.245620311320355 1.1402025077437572 12.35108576930486 0.6783707332253895 12.696427491013441 0.4429744828858787 C 12.636260352981996 0.4089931125758054 12.586328079424081 0.35947067984053027 12.551851988628545 0.29958564673121435 L 12.399365378041999 0.03555241050159952 C 12.292437543147296 -0.14980661069375378 12.35593343642691 -0.38674876247190315 12.541221436982575 -0.4937996170404 C 12.903190792402551 -0.702765647196023 13.365054286235491 -0.5973194282567099 13.600469380755452 -0.2519669282016274 C 13.6344312130566 -0.3121488456200182 13.683958243891004 -0.36208575533030307 13.74385821691012 -0.39654243058653593 L 14.007891453139734 -0.5489795967468167 C 14.193237531814196 -0.655915730005339 14.430175689970516 -0.592443038281788 14.53724348068172 -0.407172982232483 Z M 13.537427737273656 0.7316310433930887 C 13.490404346386795 0.876806129635315 13.507207755613022 1.0351176075753656 13.583658275826972 1.167186994319437 C 13.732743162300395 1.4254697681958062 14.062966556823897 1.5140133784715788 14.321270226777042 1.3649646993603493 C 14.383117111373355 1.3292191305611798 14.404297744139644 1.2501182094465593 14.368588542708087 1.1882503199062935 L 14.16329528487562 0.8326460062427335 C 14.127569065310984 0.7708053468432444 14.048483362457059 0.7496228621997504 13.986630349847808 0.7853276903116956 C 13.924771745040337 0.8210369668040548 13.90356605435089 0.9001266670477076 13.939262589490516 0.96199262533949 L 14.064208654650118 1.1783614346542493 C 13.959184232956995 1.1832055142006124 13.86023054732403 1.1290556465228945 13.807690971212049 1.0379887085014614 C 13.768387809932785 0.9699414255550719 13.759419960408554 0.8885312875740973 13.782968758081932 0.8135604577062864 C 13.842302069594208 0.6482677407183456 13.588009385337859 0.5670799927990494 13.537625514978682 0.7317299322456093 Z M 13.67987712932938 0.505966681941408 C 13.825096336611011 0.5530407336899427 13.983474055977476 0.5362360165306544 14.115581413534505 0.4597361433880952 C 14.373857965463596 0.3106706146120808 14.462403432431229 -0.019537568076971157 14.313359118575415 -0.27782636313572645 C 14.277612524431625 -0.3396677757819368 14.198529415834772 -0.36086576627879874 14.136644739121355 -0.325194123493024 L 13.781040425457796 -0.1198514212342976 C 13.719199766058312 -0.0841252016696763 13.698017281414819 -0.0050394988157512755 13.733722109526752 0.05681351379349697 C 13.769448329091395 0.1186541731929861 13.848534031945313 0.13983665783648003 13.910387044554565 0.10413182972453494 L 14.12675585386931 -0.02076479100880191 C 14.13157717071292 0.0842543642256699 14.07743335859063 0.18319698391232897 13.986383127716524 0.2357528924292609 C 13.918335844770144 0.27505605370852637 13.83692570678917 0.2840239032327583 13.761954876921349 0.2604751055593737 C 13.5987882702626 0.20173512716222408 13.513694412668745 0.4524183683015798 13.679976018181899 0.5057689042363666 Z M 13.311615042543195 0.5889344292060713 C 13.166467615979906 0.5420168529653792 13.00823221374757 0.5588538472751324 12.876207424895627 0.635263856611905 C 12.752164691092279 0.7068481366744305 12.66164025601314 0.8247775001835514 12.62454949735931 0.9631074845830289 C 12.587458738705472 1.1014374689825037 12.606840113856594 1.2488361474749397 12.678429719854712 1.3728758075619871 C 12.695577028631352 1.4025833319885175 12.723826111436995 1.4242598324095206 12.756959340866228 1.4331343077982046 C 12.790092570295455 1.4420087831868877 12.825394314734012 1.4373538729345672 12.855094654882524 1.420194123493025 L 13.210698968546076 1.2149008656605589 C 13.240406492972594 1.1977535568839275 13.262082993393605 1.16950447407828 13.270957468782285 1.1363712446490553 C 13.279831944170972 1.1032380152198322 13.275177033918643 1.0679362707812783 13.258017284477107 1.0382359306327626 C 13.222308007984752 0.9763773258252842 13.143218307741092 0.9551716351358309 13.08135234944931 0.9908681702754668 L 12.864983540134562 1.1158142354350606 C 12.860160774672497 1.010781988850192 12.914328084805762 0.911831282874357 13.005405710713603 0.8592965519969972 C 13.073611297262293 0.8198165053795062 13.155277062058813 0.810844217443171 13.230427294623897 0.8345743388668844 C 13.395522233906796 0.8931165395589941 13.47636387084227 0.6394171884177641 13.311615042543195 0.5889344292060713 Z" fill="#fd6b3b" transform="matrix(1,0,0,1,0,0)" fill-rule="evenodd"></path></g></g><g><path d=" M 0.2955 0.6255 L 0.2925 0.6255 Q 0.2895 0.6405 0.26325 0.7454999999999999 Q 0.23700000000000002 0.8505 0.2295 0.8827499999999999 Q 0.222 0.915 0.21675 0.9345 Q 0.2115 0.954 0.20550000000000002 0.97875 Q 0.1995 1.0035 0.19425 1.01775 Q 0.189 1.032 0.1845 1.0454999999999999 Q 0.17550000000000002 1.071 0.1665 1.071 Q 0.147 1.071 0.1155 1.0282499999999999 Q 0.084 0.9854999999999999 0.084 0.9584999999999999 Q 0.084 0.9315 0.17025 0.5834999999999999 Q 0.2565 0.23549999999999993 0.2595 0.12 Q 0.2595 0.09749999999999992 0.27 0.08399999999999985 Q 0.28500000000000003 0.05249999999999999 0.35925 0.038999999999999924 Q 0.4335 0.025499999999999856 0.57675 0.025499999999999856 Q 0.72 0.025499999999999856 0.80175 0.04049999999999998 Q 0.8835000000000001 0.05549999999999988 0.8835000000000001 0.08250000000000002 Q 0.8835000000000001 0.10049999999999992 0.858 0.10799999999999998 Q 0.8325 0.11549999999999994 0.8130000000000001 0.11924999999999997 Q 0.7935 0.123 0.762 0.12674999999999992 Q 0.7305 0.13049999999999995 0.7035 0.13274999999999992 Q 0.6765 0.135 0.63375 0.13949999999999996 Q 0.591 0.1439999999999999 0.555 0.14774999999999994 Q 0.519 0.15149999999999997 0.4575 0.15899999999999992 Q 0.396 0.16649999999999998 0.378 0.16799999999999993 Q 0.3795 0.1725 0.3795 0.1815 Q 0.3795 0.252 0.321 0.5055 Q 0.41400000000000003 0.51 0.52125 0.501 Q 0.6285000000000001 0.492 0.6525 0.492 Q 0.7095 0.492 0.7095 0.516 Q 0.7095 0.5625 0.57975 0.594 Q 0.45 0.6255 0.2955 0.6255 M 0.915765380859375 1.0305 Q 0.886515380859375 0.9944999999999999 0.886515380859375 0.9644999999999999 Q 0.886515380859375 0.9345 0.975765380859375 0.54525 Q 1.065015380859375 0.15599999999999992 1.066515380859375 0.06299999999999994 Q 1.066515380859375 0.03749999999999987 1.073265380859375 0.02774999999999994 Q 1.080015380859375 0.018000000000000016 1.101765380859375 0.018000000000000016 Q 1.123515380859375 0.018000000000000016 1.158765380859375 0.0645 Q 1.194015380859375 0.11099999999999999 1.194015380859375 0.16425 Q 1.194015380859375 0.21749999999999992 1.0860153808593749 0.657 Q 1.075515380859375 0.6975 1.0575153808593751 0.77325 Q 1.039515380859375 0.849 1.029015380859375 0.8895 Q 1.018515380859375 0.9299999999999999 1.006515380859375 0.978 Q 0.981015380859375 1.0665 0.963015380859375 1.0665 Q 0.945015380859375 1.0665 0.915765380859375 1.0305 M 2.09251171875 0.07499999999999996 Q 2.09551171875 0.010499999999999954 2.1232617187500002 0.010499999999999954 Q 2.15101171875 0.010499999999999954 2.18401171875 0.04499999999999993 Q 2.2170117187500002 0.0794999999999999 2.2170117187500002 0.10649999999999993 Q 2.2170117187500002 0.22949999999999993 2.17876171875 0.45599999999999996 Q 2.14051171875 0.6824999999999999 2.0767617187500003 0.876 Q 2.01301171875 1.0695 1.9560117187500001 1.0695 Q 1.93651171875 1.0695 1.91176171875 1.05 Q 1.8870117187500002 1.0305 1.87351171875 1.002 Q 1.82851171875 0.897 1.60801171875 0.33599999999999997 Q 1.56301171875 0.51 1.50826171875 0.7297499999999999 Q 1.45351171875 0.9495 1.43551171875 1.0095 Q 1.41751171875 1.0695 1.40401171875 1.0695 Q 1.38451171875 1.0695 1.35676171875 1.03575 Q 1.32901171875 1.002 1.32901171875 0.966 Q 1.32901171875 0.9299999999999999 1.42651171875 0.54375 Q 1.52401171875 0.15749999999999997 1.52701171875 0.06149999999999989 Q 1.52701171875 0.013499999999999845 1.55251171875 0.013499999999999845 Q 1.5690117187500001 0.013499999999999845 1.59826171875 0.04125000000000001 Q 1.6275117187500001 0.06899999999999995 1.64101171875 0.10199999999999998 Q 1.88251171875 0.729 1.94701171875 0.87 Q 2.04451171875 0.612 2.0775117187500003 0.25349999999999995 Q 2.09251171875 0.08850000000000002 2.09251171875 0.07499999999999996 M 3.1110146484375 0.5505 Q 3.1110146484375 0.579 2.9790146484375 0.6164999999999999 Q 2.9910146484375 0.7725 2.9910146484375 0.882 Q 2.9910146484375 1.071 2.9430146484375 1.071 Q 2.9175146484375 1.071 2.9025146484375 1.0394999999999999 Q 2.8875146484375 1.008 2.8785146484375 0.9299999999999999 Q 2.8680146484374998 0.786 2.8560146484375 0.6479999999999999 Q 2.7885146484375 0.6659999999999999 2.7330146484375 0.68025 Q 2.6775146484375 0.6944999999999999 2.5650146484375 0.726 Q 2.4330146484375 1.071 2.4090146484375 1.071 Q 2.3850146484375 1.071 2.3572646484375 1.04175 Q 2.3295146484375 1.0125 2.3295146484375 0.9794999999999999 Q 2.3295146484375 0.9644999999999999 2.4150146484375 0.7665 L 2.4045146484375 0.7665 Q 2.3745146484375 0.7665 2.3512646484375 0.7469999999999999 Q 2.3280146484375 0.7275 2.3280146484375 0.69825 Q 2.3280146484375 0.669 2.4765146484375 0.621 Q 2.5005146484375 0.567 2.5155146484375 0.5235 Q 2.5500146484375 0.43799999999999994 2.6115146484375 0.2895 Q 2.6730146484375 0.1409999999999999 2.6895146484375 0.09975 Q 2.7060146484375 0.058499999999999996 2.7472646484375 0.029249999999999998 Q 2.7885146484375 0 2.8275146484375 0 Q 2.8740146484375 0 2.9107646484375 0.14849999999999997 Q 2.9475146484375 0.29699999999999993 2.9700146484375 0.516 Q 3.0120146484375 0.5115 3.0435146484375 0.5115 Q 3.1110146484375 0.5115 3.1110146484375 0.5505 M 2.6205146484375 0.582 Q 2.7270146484375 0.5535 2.8455146484375 0.5339999999999999 Q 2.8185146484375 0.27749999999999997 2.7930146484375 0.14849999999999997 Q 2.7255146484375 0.30299999999999994 2.6205146484375 0.582 M 3.482221435546875 0.018000000000000016 Q 3.488971435546875 0.00749999999999984 3.510721435546875 0.00749999999999984 Q 3.532471435546875 0.00749999999999984 3.565471435546875 0.04499999999999993 Q 3.598471435546875 0.08250000000000002 3.598471435546875 0.12449999999999994 Q 3.598471435546875 0.22949999999999993 3.469471435546875 0.6555 Q 3.404971435546875 0.8624999999999999 3.404971435546875 0.903 Q 3.404971435546875 0.9435 3.443971435546875 0.9435 Q 3.613471435546875 0.9435 3.8159714355468752 0.8879999999999999 Q 3.880471435546875 0.87 3.893221435546875 0.87 Q 3.905971435546875 0.87 3.9104714355468753 0.87525 Q 3.914971435546875 0.8805 3.914971435546875 0.8955 Q 3.914971435546875 0.9584999999999999 3.761221435546875 1.014 Q 3.607471435546875 1.0695 3.448471435546875 1.0695 Q 3.376471435546875 1.0695 3.323221435546875 1.0274999999999999 Q 3.269971435546875 0.9854999999999999 3.269971435546875 0.92775 Q 3.269971435546875 0.87 3.372721435546875 0.513 Q 3.4754714355468748 0.15599999999999992 3.4754714355468748 0.05249999999999999 Q 3.4754714355468748 0.02849999999999997 3.482221435546875 0.018000000000000016 M 4.728753662109375 1.0305 Q 4.699503662109375 0.9944999999999999 4.699503662109375 0.9644999999999999 Q 4.699503662109375 0.9345 4.788753662109375 0.54525 Q 4.878003662109375 0.15599999999999992 4.879503662109375 0.06299999999999994 Q 4.879503662109375 0.03749999999999987 4.886253662109375 0.02774999999999994 Q 4.893003662109375 0.018000000000000016 4.914753662109375 0.018000000000000016 Q 4.936503662109375 0.018000000000000016 4.971753662109375 0.0645 Q 5.007003662109375 0.11099999999999999 5.007003662109375 0.16425 Q 5.007003662109375 0.21749999999999992 4.899003662109375 0.657 Q 4.888503662109375 0.6975 4.870503662109375 0.77325 Q 4.852503662109375 0.849 4.842003662109375 0.8895 Q 4.831503662109375 0.9299999999999999 4.819503662109375 0.978 Q 4.794003662109375 1.0665 4.776003662109375 1.0665 Q 4.758003662109375 1.0665 4.728753662109375 1.0305 M 5.9055 0.07499999999999996 Q 5.9085 0.010499999999999954 5.93625 0.010499999999999954 Q 5.964 0.010499999999999954 5.997 0.04499999999999993 Q 6.03 0.0794999999999999 6.03 0.10649999999999993 Q 6.03 0.22949999999999993 5.99175 0.45599999999999996 Q 5.9535 0.6824999999999999 5.88975 0.876 Q 5.8260000000000005 1.0695 5.769 1.0695 Q 5.7495 1.0695 5.72475 1.05 Q 5.7 1.0305 5.6865 1.002 Q 5.6415 0.897 5.421 0.33599999999999997 Q 5.376 0.51 5.32125 0.7297499999999999 Q 5.2665 0.9495 5.2485 1.0095 Q 5.2305 1.0695 5.217 1.0695 Q 5.1975 1.0695 5.16975 1.03575 Q 5.142 1.002 5.142 0.966 Q 5.142 0.9299999999999999 5.2395 0.54375 Q 5.337 0.15749999999999997 5.34 0.06149999999999989 Q 5.34 0.013499999999999845 5.3655 0.013499999999999845 Q 5.382 0.013499999999999845 5.41125 0.04125000000000001 Q 5.4405 0.06899999999999995 5.454 0.10199999999999998 Q 5.6955 0.729 5.76 0.87 Q 5.8575 0.612 5.8905 0.25349999999999995 Q 5.9055 0.08850000000000002 5.9055 0.07499999999999996 M 6.5040029296875 0.1469999999999999 L 6.2475029296875 0.15899999999999992 Q 6.2235029296875 0.15899999999999992 6.1980029296875 0.12749999999999995 Q 6.1725029296875 0.09599999999999997 6.1725029296875 0.06600000000000006 Q 6.1725029296875 0.038999999999999924 6.2587529296875 0.03149999999999986 Q 6.3450029296875 0.02400000000000002 6.6375029296875 0.02400000000000002 Q 6.7890029296875 0.02400000000000002 6.8872529296875005 0.05699999999999994 Q 6.9855029296875 0.08999999999999986 6.9855029296875 0.13049999999999995 Q 6.9855029296875 0.15899999999999992 6.9360029296875 0.15899999999999992 Q 6.8865029296875 0.15899999999999992 6.7980029296875 0.1529999999999999 Q 6.7095029296875 0.1469999999999999 6.6285029296874995 0.14549999999999996 Q 6.6330029296875 0.16049999999999998 6.6330029296875 0.1785 Q 6.6330029296875 0.23399999999999999 6.5160029296875 0.6944999999999999 Q 6.5040029296875 0.7424999999999999 6.4800029296875 0.8445 Q 6.4560029296875 0.9465 6.4440029296875 0.987 Q 6.4230029296875 1.0665 6.4065029296875 1.0665 Q 6.3840029296875 1.0665 6.3562529296875 1.03275 Q 6.3285029296875 0.999 6.3285029296875 0.9644999999999999 Q 6.3285029296875 0.9299999999999999 6.4095029296875 0.60975 Q 6.4905029296875 0.2895 6.5040029296875 0.1469999999999999 M 7.192462646484375 0.5954999999999999 Q 7.111462646484375 0.852 7.111462646484375 0.9059999999999999 Q 7.111462646484375 0.9239999999999999 7.122712646484375 0.9352499999999999 Q 7.133962646484375 0.9465 7.151962646484375 0.9465 Q 7.324462646484375 0.9465 7.532962646484375 0.891 Q 7.600462646484375 0.873 7.610962646484375 0.873 Q 7.633462646484375 0.873 7.633462646484375 0.9045 Q 7.633462646484375 0.9584999999999999 7.467712646484375 1.0155 Q 7.301962646484375 1.0725 7.147462646484375 1.0725 Q 7.078462646484375 1.0725 7.026712646484375 1.032 Q 6.974962646484375 0.9914999999999999 6.974962646484375 0.9299999999999999 Q 6.974962646484375 0.8684999999999999 7.019212646484375 0.72 Q 7.063462646484375 0.5715 7.108462646484375 0.40349999999999997 Q 7.153462646484375 0.23549999999999993 7.153462646484375 0.12 Q 7.153462646484375 0.10349999999999993 7.159462646484375 0.08549999999999991 Q 7.184962646484375 0.030000000000000027 7.486462646484375 0.030000000000000027 Q 7.787962646484375 0.030000000000000027 7.787962646484375 0.0734999999999999 Q 7.787962646484375 0.10349999999999993 7.723462646484375 0.11399999999999999 Q 7.669462646484375 0.12449999999999994 7.580212646484375 0.13274999999999992 Q 7.490962646484375 0.1409999999999999 7.4549626464843755 0.14474999999999993 Q 7.418962646484375 0.14849999999999997 7.280962646484375 0.1725 L 7.280962646484375 0.17699999999999994 Q 7.280962646484375 0.2789999999999999 7.225462646484375 0.48449999999999993 Q 7.234462646484375 0.486 7.286212646484375 0.486 Q 7.337962646484375 0.486 7.424962646484375 0.4784999999999999 Q 7.511962646484375 0.471 7.556212646484375 0.471 Q 7.600462646484375 0.471 7.600462646484375 0.492 Q 7.600462646484375 0.5445 7.4774626464843745 0.57 Q 7.354462646484375 0.5954999999999999 7.192462646484375 0.5954999999999999 M 7.90799560546875 1.071 Q 7.88549560546875 1.071 7.85699560546875 1.038 Q 7.82849560546875 1.005 7.82849560546875 0.97125 Q 7.82849560546875 0.9375 7.91099560546875 0.6465 Q 7.99349560546875 0.3554999999999999 8.00549560546875 0.20399999999999996 Q 7.98599560546875 0.19199999999999995 7.97099560546875 0.16649999999999998 Q 7.95599560546875 0.1409999999999999 7.95599560546875 0.12149999999999994 Q 7.95599560546875 0.08699999999999997 8.05799560546875 0.050249999999999906 Q 8.15999560546875 0.013499999999999845 8.28374560546875 0.013499999999999845 Q 8.40749560546875 0.013499999999999845 8.49824560546875 0.07274999999999987 Q 8.58899560546875 0.132 8.58899560546875 0.24 Q 8.58899560546875 0.3135 8.54774560546875 0.37725 Q 8.50649560546875 0.44099999999999995 8.44724560546875 0.48149999999999993 Q 8.38799560546875 0.5219999999999999 8.32949560546875 0.5535 Q 8.27099560546875 0.585 8.22974560546875 0.60525 Q 8.18849560546875 0.6255 8.18849560546875 0.6345 Q 8.18849560546875 0.6675 8.24024560546875 0.72 Q 8.29199560546875 0.7725 8.31299560546875 0.792 Q 8.33399560546875 0.8114999999999999 8.36849560546875 0.84375 Q 8.40299560546875 0.876 8.43374560546875 0.9015 Q 8.46449560546875 0.9269999999999999 8.48324560546875 0.9435 Q 8.50199560546875 0.96 8.52149560546875 0.978 Q 8.55899560546875 1.0125 8.55899560546875 1.0335 Q 8.55899560546875 1.0695 8.50949560546875 1.0695 Q 8.41949560546875 1.0695 8.25299560546875 0.91275 Q 8.08649560546875 0.756 8.04899560546875 0.6465 Q 7.97849560546875 0.8805 7.96799560546875 0.91725 Q 7.9574956054687505 0.954 7.94399560546875 0.993 Q 7.91999560546875 1.071 7.90799560546875 1.071 M 8.13449560546875 0.24449999999999994 Q 8.13449560546875 0.34199999999999997 8.07149560546875 0.567 Q 8.09699560546875 0.5475 8.16899560546875 0.50925 Q 8.24099560546875 0.471 8.29874560546875 0.43875 Q 8.35649560546875 0.4065 8.40449560546875 0.3524999999999999 Q 8.45249560546875 0.2985 8.45249560546875 0.24 Q 8.45249560546875 0.1469999999999999 8.29049560546875 0.1469999999999999 Q 8.21699560546875 0.1469999999999999 8.11949560546875 0.1845 Q 8.13449560546875 0.21749999999999992 8.13449560546875 0.24449999999999994 M 9.45147216796875 0.018000000000000016 Q 9.47547216796875 0.018000000000000016 9.49947216796875 0.035250000000000004 Q 9.52347216796875 0.05249999999999999 9.52347216796875 0.07725000000000004 Q 9.52347216796875 0.10199999999999998 9.49572216796875 0.15599999999999992 Q 9.46797216796875 0.20999999999999996 9.40047216796875 0.32924999999999993 Q 9.33297216796875 0.4485 9.28497216796875 0.5445 Q 9.23697216796875 0.6405 9.19422216796875 0.73275 Q 9.15147216796875 0.825 9.126722167968751 0.87975 Q 9.10197216796875 0.9345 9.07797216796875 0.984 Q 9.02997216796875 1.0755 8.99847216796875 1.0755 Q 8.98047216796875 1.0755 8.95497216796875 1.04625 Q 8.92947216796875 1.017 8.91447216796875 0.9794999999999999 Q 8.87397216796875 0.879 8.80572216796875 0.5145 Q 8.73747216796875 0.1499999999999999 8.73747216796875 0.0645 Q 8.73747216796875 0.018000000000000016 8.76297216796875 0.018000000000000016 Q 8.79447216796875 0.018000000000000016 8.82747216796875 0.050249999999999906 Q 8.86047216796875 0.08250000000000002 8.87997216796875 0.132 Q 8.88897216796875 0.15899999999999992 8.92422216796875 0.4312499999999999 Q 8.95947216796875 0.7035 9.00447216796875 0.8744999999999999 Q 9.10047216796875 0.603 9.25197216796875 0.3105 Q 9.40347216796875 0.018000000000000016 9.45147216796875 0.018000000000000016 M 9.56319580078125 1.0305 Q 9.53394580078125 0.9944999999999999 9.53394580078125 0.9644999999999999 Q 9.53394580078125 0.9345 9.62319580078125 0.54525 Q 9.71244580078125 0.15599999999999992 9.71394580078125 0.06299999999999994 Q 9.71394580078125 0.03749999999999987 9.72069580078125 0.02774999999999994 Q 9.72744580078125 0.018000000000000016 9.74919580078125 0.018000000000000016 Q 9.77094580078125 0.018000000000000016 9.80619580078125 0.0645 Q 9.84144580078125 0.11099999999999999 9.84144580078125 0.16425 Q 9.84144580078125 0.21749999999999992 9.73344580078125 0.657 Q 9.72294580078125 0.6975 9.70494580078125 0.77325 Q 9.68694580078125 0.849 9.67644580078125 0.8895 Q 9.66594580078125 0.9299999999999999 9.65394580078125 0.978 Q 9.62844580078125 1.0665 9.61044580078125 1.0665 Q 9.59244580078125 1.0665 9.56319580078125 1.0305 M 10.208942138671874 0.5954999999999999 Q 10.127942138671875 0.852 10.127942138671875 0.9059999999999999 Q 10.127942138671875 0.9239999999999999 10.139192138671875 0.9352499999999999 Q 10.150442138671876 0.9465 10.168442138671875 0.9465 Q 10.340942138671876 0.9465 10.549442138671875 0.891 Q 10.616942138671876 0.873 10.627442138671874 0.873 Q 10.649942138671875 0.873 10.649942138671875 0.9045 Q 10.649942138671875 0.9584999999999999 10.484192138671876 1.0155 Q 10.318442138671875 1.0725 10.163942138671874 1.0725 Q 10.094942138671875 1.0725 10.043192138671875 1.032 Q 9.991442138671875 0.9914999999999999 9.991442138671875 0.9299999999999999 Q 9.991442138671875 0.8684999999999999 10.035692138671875 0.72 Q 10.079942138671875 0.5715 10.124942138671875 0.40349999999999997 Q 10.169942138671875 0.23549999999999993 10.169942138671875 0.12 Q 10.169942138671875 0.10349999999999993 10.175942138671875 0.08549999999999991 Q 10.201442138671876 0.030000000000000027 10.502942138671875 0.030000000000000027 Q 10.804442138671876 0.030000000000000027 10.804442138671876 0.0734999999999999 Q 10.804442138671876 0.10349999999999993 10.739942138671875 0.11399999999999999 Q 10.685942138671875 0.12449999999999994 10.596692138671875 0.13274999999999992 Q 10.507442138671875 0.1409999999999999 10.471442138671875 0.14474999999999993 Q 10.435442138671874 0.14849999999999997 10.297442138671874 0.1725 L 10.297442138671874 0.17699999999999994 Q 10.297442138671874 0.2789999999999999 10.241942138671876 0.48449999999999993 Q 10.250942138671874 0.486 10.302692138671874 0.486 Q 10.354442138671875 0.486 10.441442138671874 0.4784999999999999 Q 10.528442138671876 0.471 10.572692138671876 0.471 Q 10.616942138671876 0.471 10.616942138671876 0.492 Q 10.616942138671876 0.5445 10.493942138671875 0.57 Q 10.370942138671875 0.5954999999999999 10.208942138671874 0.5954999999999999 M 11.52147509765625 0.01649999999999996 Q 11.69697509765625 0.01649999999999996 11.78697509765625 0.15599999999999992 Q 11.87697509765625 0.2955 11.87697509765625 0.507 Q 11.87697509765625 0.7184999999999999 11.77272509765625 0.8917499999999999 Q 11.66847509765625 1.065 11.53197509765625 1.065 Q 11.43597509765625 1.065 11.39097509765625 0.957 Q 11.34597509765625 0.849 11.33247509765625 0.6495 Q 11.26947509765625 0.738 11.18847509765625 0.8505 Q 11.03247509765625 1.0665 10.96947509765625 1.0665 Q 10.94547509765625 1.0665 10.91397509765625 1.0274999999999999 Q 10.88247509765625 0.9884999999999999 10.88247509765625 0.9292499999999999 Q 10.88247509765625 0.87 10.92297509765625 0.55875 Q 10.96347509765625 0.24749999999999994 10.96347509765625 0.0734999999999999 Q 10.96347509765625 0.018000000000000016 10.99647509765625 0.018000000000000016 Q 11.02947509765625 0.018000000000000016 11.07372509765625 0.05699999999999994 Q 11.11797509765625 0.09599999999999997 11.11797509765625 0.12824999999999998 Q 11.11797509765625 0.16049999999999998 11.06772509765625 0.4455 Q 11.01747509765625 0.7304999999999999 11.00547509765625 0.8925 Q 11.09697509765625 0.738 11.21172509765625 0.6067499999999999 Q 11.32647509765625 0.4754999999999999 11.37597509765625 0.4754999999999999 Q 11.42697509765625 0.4754999999999999 11.44647509765625 0.7004999999999999 Q 11.45397509765625 0.7845 11.47572509765625 0.855 Q 11.49747509765625 0.9255 11.53497509765625 0.9255 Q 11.61897509765625 0.9255 11.68122509765625 0.78975 Q 11.74347509765625 0.6539999999999999 11.74347509765625 0.489 Q 11.74347509765625 0.30599999999999994 11.66247509765625 0.20699999999999996 Q 11.62047509765625 0.15449999999999997 11.57022509765625 0.15449999999999997 Q 11.51997509765625 0.15449999999999997 11.48472509765625 0.12 Q 11.44947509765625 0.08549999999999991 11.44947509765625 0.06000000000000005 Q 11.44947509765625 0.01649999999999996 11.52147509765625 0.01649999999999996" fill="#260304" fill-rule="nonzero"></path></g><g></g></g><defs><clipPath id="SvgjsClipPath23180"><path d=" M 12.34744873046875 -0.6009456887463159 h 2.296891377492632 v 2.296891377492632 h -2.296891377492632 Z"></path></clipPath><clipPath id="SvgjsClipPath23178290c9c44-3ede-47f5-ba5b-648ecced5eff"><path d=" M 12.34744873046875 -0.6009456887463159 L 14.644340107961382 -0.6009456887463159 L 14.644340107961382 1.695945688746316 L 12.34744873046875 1.695945688746316 Z"></path></clipPath></defs></svg>